<svg xmlns="http://www.w3.org/2000/svg" xmlns:xlink="http://www.w3.org/1999/xlink" version="1.1" id="Layer_1" x="0px" y="0px" style="enable-background:new 0 0 1500 1500;" xml:space="preserve" viewBox="29.23 271.61 1441.54 610.43">
<g>
	<polygon style="fill:#FFFFFF;" points="77.776,824.429 77.776,828.407 93.826,828.407 93.826,824.429 93.826,816.887    77.776,816.887  "/>
	<polygon style="fill:#FFFFFF;" points="163.884,824.429 163.884,828.407 179.935,828.407 179.935,824.429 179.935,816.887    163.884,816.887  "/>
	<rect x="90.545" y="709.778" style="fill:#FFFFFF;" width="12.252" height="12.631"/>
	<rect x="111.81" y="709.778" style="fill:#FFFFFF;" width="12.252" height="12.631"/>
	<rect x="133.075" y="709.778" style="fill:#FFFFFF;" width="12.252" height="12.631"/>
	<rect x="154.34" y="709.778" style="fill:#FFFFFF;" width="12.252" height="12.631"/>
	<rect x="90.545" y="732.082" style="fill:#FFFFFF;" width="12.252" height="12.631"/>
	<rect x="111.81" y="732.082" style="fill:#FFFFFF;" width="12.252" height="12.631"/>
	<rect x="133.075" y="732.082" style="fill:#FFFFFF;" width="12.252" height="12.631"/>
	<rect x="154.34" y="732.082" style="fill:#FFFFFF;" width="12.252" height="12.631"/>
	<rect x="90.545" y="754.385" style="fill:#FFFFFF;" width="12.252" height="12.631"/>
	<rect x="111.81" y="754.385" style="fill:#FFFFFF;" width="12.252" height="12.631"/>
	<rect x="133.075" y="754.385" style="fill:#FFFFFF;" width="12.252" height="12.631"/>
	<rect x="154.34" y="754.385" style="fill:#FFFFFF;" width="12.252" height="12.631"/>
	<rect x="90.545" y="776.688" style="fill:#FFFFFF;" width="12.252" height="12.631"/>
	<rect x="111.81" y="776.688" style="fill:#FFFFFF;" width="12.252" height="12.631"/>
	<rect x="133.075" y="776.688" style="fill:#FFFFFF;" width="12.252" height="12.631"/>
	<rect x="154.34" y="776.688" style="fill:#FFFFFF;" width="12.252" height="12.631"/>
	<rect x="680.92" y="639.043" style="fill:#FFFFFF;" width="2.739" height="20.348"/>
	<rect x="694.224" y="639.043" style="fill:#FFFFFF;" width="2.739" height="20.348"/>
	<rect x="680.92" y="663.304" style="fill:#FFFFFF;" width="2.739" height="20.348"/>
	<rect x="694.224" y="663.304" style="fill:#FFFFFF;" width="2.739" height="20.348"/>
	<rect x="680.92" y="687.565" style="fill:#FFFFFF;" width="2.739" height="20.348"/>
	<rect x="694.224" y="687.565" style="fill:#FFFFFF;" width="2.739" height="20.348"/>
	<rect x="680.92" y="711.826" style="fill:#FFFFFF;" width="2.739" height="20.348"/>
	<rect x="694.224" y="711.826" style="fill:#FFFFFF;" width="2.739" height="20.348"/>
	<rect x="395.104" y="610.479" style="fill:#FFFFFF;" width="12.49" height="25.435"/>
	<rect x="416.626" y="610.479" style="fill:#FFFFFF;" width="12.49" height="25.435"/>
	<rect x="438.147" y="610.479" style="fill:#FFFFFF;" width="12.49" height="25.435"/>
	<rect x="459.669" y="610.479" style="fill:#FFFFFF;" width="12.49" height="25.435"/>
	<rect x="395.104" y="648.043" style="fill:#FFFFFF;" width="12.49" height="25.435"/>
	<rect x="416.626" y="648.043" style="fill:#FFFFFF;" width="12.49" height="25.435"/>
	<rect x="438.147" y="648.043" style="fill:#FFFFFF;" width="12.49" height="25.435"/>
	<rect x="459.669" y="648.043" style="fill:#FFFFFF;" width="12.49" height="25.435"/>
	<rect x="395.104" y="685.609" style="fill:#FFFFFF;" width="12.49" height="25.435"/>
	<rect x="416.626" y="685.609" style="fill:#FFFFFF;" width="12.49" height="25.435"/>
	<rect x="438.147" y="685.609" style="fill:#FFFFFF;" width="12.49" height="25.435"/>
	<rect x="459.669" y="685.609" style="fill:#FFFFFF;" width="12.49" height="25.435"/>
	<rect x="395.104" y="723.174" style="fill:#FFFFFF;" width="12.49" height="25.435"/>
	<rect x="416.626" y="723.174" style="fill:#FFFFFF;" width="12.49" height="25.435"/>
	<rect x="438.147" y="723.174" style="fill:#FFFFFF;" width="12.49" height="25.435"/>
	<rect x="459.669" y="723.174" style="fill:#FFFFFF;" width="12.49" height="25.435"/>
	<rect x="395.104" y="760.739" style="fill:#FFFFFF;" width="12.49" height="25.435"/>
	<rect x="416.626" y="760.739" style="fill:#FFFFFF;" width="12.49" height="25.435"/>
	<rect x="438.147" y="760.739" style="fill:#FFFFFF;" width="12.49" height="25.435"/>
	<rect x="459.669" y="760.739" style="fill:#FFFFFF;" width="12.49" height="25.435"/>
	<rect x="395.104" y="798.305" style="fill:#FFFFFF;" width="12.49" height="25.435"/>
	<rect x="416.626" y="798.305" style="fill:#FFFFFF;" width="12.49" height="25.435"/>
	<rect x="438.147" y="798.305" style="fill:#FFFFFF;" width="12.49" height="25.435"/>
	<rect x="459.669" y="798.305" style="fill:#FFFFFF;" width="12.49" height="25.435"/>
	<rect x="740.854" y="750" style="fill:#FFFFFF;" width="5.218" height="85.869"/>
	<rect x="724.159" y="750" style="fill:#FFFFFF;" width="5.217" height="85.869"/>
	<rect x="1333.127" y="702.043" style="fill:#FFFFFF;" width="7.238" height="7.239"/>
	<rect x="1345.648" y="702.043" style="fill:#FFFFFF;" width="7.239" height="7.239"/>
	<rect x="1358.17" y="702.043" style="fill:#FFFFFF;" width="7.239" height="7.239"/>
	<rect x="1370.691" y="702.043" style="fill:#FFFFFF;" width="7.239" height="7.239"/>
	<rect x="1333.127" y="713.979" style="fill:#FFFFFF;" width="7.238" height="7.239"/>
	<rect x="1268.17" y="741.467" style="fill:#FFFFFF;" width="7.239" height="7.239"/>
	<rect x="1358.17" y="713.979" style="fill:#FFFFFF;" width="7.239" height="7.239"/>
	<rect x="1293.213" y="751.661" style="fill:#FFFFFF;" width="7.239" height="7.239"/>
	<rect x="1333.127" y="725.913" style="fill:#FFFFFF;" width="7.238" height="7.239"/>
	<rect x="1345.648" y="725.913" style="fill:#FFFFFF;" width="7.239" height="7.239"/>
	<rect x="1358.17" y="725.913" style="fill:#FFFFFF;" width="7.239" height="7.239"/>
	<rect x="1370.691" y="725.913" style="fill:#FFFFFF;" width="7.239" height="7.239"/>
	<rect x="1268.17" y="729.533" style="fill:#FFFFFF;" width="7.239" height="7.239"/>
	<rect x="1345.648" y="737.848" style="fill:#FFFFFF;" width="7.239" height="7.239"/>
	<rect x="1293.213" y="729.533" style="fill:#FFFFFF;" width="7.239" height="7.239"/>
	<rect x="1370.691" y="737.848" style="fill:#FFFFFF;" width="7.239" height="7.239"/>
	<rect x="1333.127" y="749.783" style="fill:#FFFFFF;" width="7.238" height="7.239"/>
	<rect x="1345.648" y="749.783" style="fill:#FFFFFF;" width="7.239" height="7.239"/>
	<rect x="1358.17" y="749.783" style="fill:#FFFFFF;" width="7.239" height="7.239"/>
	<rect x="1293.213" y="787.466" style="fill:#FFFFFF;" width="7.239" height="7.238"/>
	<rect x="1333.127" y="761.718" style="fill:#FFFFFF;" width="7.238" height="7.238"/>
	<rect x="1268.17" y="799.4" style="fill:#FFFFFF;" width="7.239" height="7.239"/>
	<rect x="1358.17" y="761.718" style="fill:#FFFFFF;" width="7.239" height="7.238"/>
	<rect x="1370.691" y="761.718" style="fill:#FFFFFF;" width="7.239" height="7.238"/>
	<rect x="1333.127" y="773.652" style="fill:#FFFFFF;" width="7.238" height="7.239"/>
	<rect x="1345.648" y="773.652" style="fill:#FFFFFF;" width="7.239" height="7.239"/>
	<rect x="1358.17" y="773.652" style="fill:#FFFFFF;" width="7.239" height="7.239"/>
	<rect x="1370.691" y="773.652" style="fill:#FFFFFF;" width="7.239" height="7.239"/>
	<rect x="1333.127" y="785.587" style="fill:#FFFFFF;" width="7.238" height="7.239"/>
	<rect x="1345.648" y="785.587" style="fill:#FFFFFF;" width="7.239" height="7.239"/>
	<rect x="1358.17" y="785.587" style="fill:#FFFFFF;" width="7.239" height="7.239"/>
	<rect x="1370.691" y="785.587" style="fill:#FFFFFF;" width="7.239" height="7.239"/>
	<rect x="1333.127" y="797.521" style="fill:#FFFFFF;" width="7.238" height="7.239"/>
	<rect x="1268.17" y="771.729" style="fill:#FFFFFF;" width="7.239" height="7.239"/>
	<rect x="1280.691" y="771.729" style="fill:#FFFFFF;" width="7.239" height="7.239"/>
	<rect x="1370.691" y="797.521" style="fill:#FFFFFF;" width="7.239" height="7.239"/>
	<rect x="1333.127" y="809.456" style="fill:#FFFFFF;" width="7.238" height="7.239"/>
	<rect x="1345.648" y="809.456" style="fill:#FFFFFF;" width="7.239" height="7.239"/>
	<rect x="1358.17" y="809.456" style="fill:#FFFFFF;" width="7.239" height="7.239"/>
	<rect x="1370.691" y="809.456" style="fill:#FFFFFF;" width="7.239" height="7.239"/>
	<rect x="1333.127" y="821.392" style="fill:#FFFFFF;" width="7.238" height="7.239"/>
	<rect x="1280.691" y="811.805" style="fill:#FFFFFF;" width="7.239" height="7.238"/>
	<rect x="1293.213" y="811.805" style="fill:#FFFFFF;" width="7.239" height="7.238"/>
	<rect x="1370.691" y="821.392" style="fill:#FFFFFF;" width="7.239" height="7.239"/>
	<rect x="1333.127" y="833.326" style="fill:#FFFFFF;" width="7.238" height="7.239"/>
	<rect x="1345.648" y="833.326" style="fill:#FFFFFF;" width="7.239" height="7.239"/>
	<rect x="1293.213" y="823.739" style="fill:#FFFFFF;" width="7.239" height="7.239"/>
	<rect x="1370.691" y="833.326" style="fill:#FFFFFF;" width="7.239" height="7.239"/>
	<path d="M1439.359,859.985v-0.171V814.87h-52.984V695.685h-62.119V764h-14.616v-44.259h-49.33v108.404h-18.271V771.92h-20.63   v22.677h-53.956l-3.107-2.071c-0.208-0.139-0.437-0.245-0.677-0.316c-0.472-0.139-47.298-13.932-61.75-18.086   c-3.49-1.004-7.872-2.587-12.947-4.419c-16.079-5.808-38.102-13.761-60.067-13.761c-30.127,0-58.763,5.503-82.814,15.913   c-24.005,10.391-62.791,20.229-63.181,20.327c-0.174,0.044-0.343,0.106-0.504,0.187l-4.384,2.192l-0.061,0.034h-65.858   l-0.027-0.048H757.67v-51.563h-4.872l-9.338-29.232h-41.819v-79.578l6.902-28.42v-51.157l4.061-13.398h6.902l-2.03-1.624   l3.451-7.917l2.842-2.842l3.451-3.451h-9.338l-9.338-11.774l-6.09-31.263l6.09-10.557h-8.526l-2.842-17.864l2.842-3.654h-6.09   l-4.06-178.644l-4.06,178.441h-7.105l4.263,4.263l-4.466,17.458h-7.714l5.278,10.557l-4.06,31.668l-13.804,11.774h-5.685v5.278   h5.685l0.812,6.902v3.654h6.902l5.278,12.992v50.751l4.872,28.827v112.871h-36.541v24.766h-6.09v28.167h-12.181v-59.835h-23.954   v53.289h-17.966v13.398h-7.917v-12.789h-7.308V657.926h-7.613v-9.439h-2.436v-10.658h-39.281v-3.045h-13.703v2.741h-9.439v-38.977   h-4.567V580.57c7.425-5.454-15.69-22.36-50.853-22.065c-36.236,0.305-45.828,11.114-47.351,17.052   c-0.535,2.086,0.662,3.739,2.436,5.007v18.288h-8.374V804.09h-5.786l-3.045,3.045h-9.44v-5.177h-3.35V677.719h-8.526v-5.481h-6.395   v-8.831h-13.398v-9.44h-6.09c-5.481-21.315-21.62-27.71-21.62-27.71l-1.522-37.455l-3.35,37.455   c-20.097,8.526-25.579,31.06-25.579,31.06v4.872h-14.616v10.962v7.308h-8.526l-3.654,10.353v20.098l-7.308,10.353v91.353h-51.675   v-6.08h7.452v-7.55h-19.669V705.38v-4.006v-6.796H80.309v6.796v4.006v93.606H60.64v7.55h7.452v53.449h-38.86v22.058h1441.535   v-22.058H1439.359z M154.34,709.778h12.252v12.631H154.34V709.778z M154.34,732.082h12.252v12.631H154.34V732.082z M154.34,754.385   h12.252v12.631H154.34V754.385z M111.81,709.778h12.252v12.631H111.81V709.778z M111.81,732.082h12.252v12.631H111.81V732.082z    M111.81,754.385h12.252v12.631H111.81V754.385z M111.81,776.688h12.252v12.631H111.81V776.688z M93.826,824.429v3.979h-16.05   v-3.979v-7.542h16.05V824.429z M102.797,789.318H90.545v-12.631h12.252V789.318z M102.797,767.016H90.545v-12.631h12.252V767.016z    M102.797,744.712H90.545v-12.631h12.252V744.712z M102.797,722.409H90.545v-12.631h12.252V722.409z M105.066,859.985   c0-8.548,10.522-20.307,23.502-20.307c1.335,0,2.642,0.13,3.916,0.362v19.773l0.095,0.171H105.066z M145.327,789.318h-12.252   v-12.631h12.252V789.318z M145.327,767.016h-12.252v-12.631h12.252V767.016z M145.327,744.712h-12.252v-12.631h12.252V744.712z    M145.327,722.409h-12.252v-12.631h12.252V722.409z M154.34,776.688h12.252v12.631H154.34V776.688z M179.935,824.429v3.979h-16.05   v-3.979v-7.542h16.05V824.429z M417.37,569.974l2.332,9.694h-12.605C406.175,575.112,411.172,571.991,417.37,569.974z    M395.104,582.532c1.268,0.492,2.473,0.847,3.35,1.076v15.244h-3.35V582.532z M407.594,823.739h-12.49v-25.435h12.49V823.739z    M407.594,786.174h-12.49v-25.435h12.49V786.174z M407.594,748.609h-12.49v-25.435h12.49V748.609z M407.594,711.043h-12.49v-25.435   h12.49V711.043z M407.594,673.479h-12.49v-25.435h12.49V673.479z M407.594,635.913h-12.49v-25.435h12.49V635.913z M429.116,823.739   h-12.49v-25.435h12.49V823.739z M429.116,786.174h-12.49v-25.435h12.49V786.174z M429.116,748.609h-12.49v-25.435h12.49V748.609z    M429.116,711.043h-12.49v-25.435h12.49V711.043z M429.116,673.479h-12.49v-25.435h12.49V673.479z M429.116,635.913h-12.49v-25.435   h12.49V635.913z M436.517,579.668h-14.615l-1.732-10.515c5.809-1.532,12.011-2.21,15.128-2.274   c0.385-0.008,0.799-0.003,1.218,0.004V579.668z M450.637,823.739h-12.49v-25.435h12.49V823.739z M450.637,786.174h-12.49v-25.435   h12.49V786.174z M450.637,748.609h-12.49v-25.435h12.49V748.609z M450.637,711.043h-12.49v-25.435h12.49V711.043z M450.637,673.479   h-12.49v-25.435h12.49V673.479z M450.637,635.913h-12.49v-25.435h12.49V635.913z M455.864,579.668h-17.269v-12.7   c5.435,0.344,12.619,1.618,18.278,3.272L455.864,579.668z M458.335,570.688c1.876,0.601,3.541,1.24,4.826,1.898   c4.474,2.291,5.903,5.523,6.35,7.082h-12.191L458.335,570.688z M472.159,823.739h-12.49v-25.435h12.49V823.739z M472.159,786.174   h-12.49v-25.435h12.49V786.174z M472.159,748.609h-12.49v-25.435h12.49V748.609z M472.159,711.043h-12.49v-25.435h12.49V711.043z    M472.159,673.479h-12.49v-25.435h12.49V673.479z M472.159,635.913h-12.49v-25.435h12.49V635.913z M483.411,597.025h-3.35v-13.539   c1.14-0.349,2.265-0.732,3.35-1.159V597.025z M683.659,732.174h-2.739v-20.348h2.739V732.174z M683.659,707.913h-2.739v-20.348   h2.739V707.913z M683.659,683.652h-2.739v-20.348h2.739V683.652z M683.659,659.391h-2.739v-20.348h2.739V659.391z M696.963,732.174   h-2.739v-20.348h2.739V732.174z M696.963,707.913h-2.739v-20.348h2.739V707.913z M696.963,683.652h-2.739v-20.348h2.739V683.652z    M696.963,659.391h-2.739v-20.348h2.739V659.391z M729.376,835.869h-5.217V750h5.217V835.869z M746.072,835.869h-5.218V750h5.218   V835.869z M1370.691,702.043h7.239v7.239h-7.239V702.043z M1370.691,725.913h7.239v7.239h-7.239V725.913z M1370.691,737.848h7.239   v7.239h-7.239V737.848z M1370.691,761.718h7.239v7.238h-7.239V761.718z M1370.691,773.652h7.239v7.239h-7.239V773.652z    M1370.691,785.587h7.239v7.239h-7.239V785.587z M1370.691,797.521h7.239v7.239h-7.239V797.521z M1370.691,809.456h7.239v7.239   h-7.239V809.456z M1370.691,821.392h7.239v7.239h-7.239V821.392z M1370.691,833.326h7.239v7.239h-7.239V833.326z M1358.17,702.043   h7.239v7.239h-7.239V702.043z M1358.17,713.979h7.239v7.239h-7.239V713.979z M1358.17,725.913h7.239v7.239h-7.239V725.913z    M1358.17,749.783h7.239v7.239h-7.239V749.783z M1358.17,761.718h7.239v7.238h-7.239V761.718z M1358.17,773.652h7.239v7.239h-7.239   V773.652z M1358.17,785.587h7.239v7.239h-7.239V785.587z M1358.17,809.456h7.239v7.239h-7.239V809.456z M1345.648,702.043h7.239   v7.239h-7.239V702.043z M1345.648,725.913h7.239v7.239h-7.239V725.913z M1345.648,737.848h7.239v7.239h-7.239V737.848z    M1345.648,749.783h7.239v7.239h-7.239V749.783z M1345.648,773.652h7.239v7.239h-7.239V773.652z M1345.648,785.587h7.239v7.239   h-7.239V785.587z M1345.648,809.456h7.239v7.239h-7.239V809.456z M1345.648,833.326h7.239v7.239h-7.239V833.326z M1333.127,702.043   h7.238v7.239h-7.238V702.043z M1333.127,713.979h7.238v7.239h-7.238V713.979z M1333.127,725.913h7.238v7.239h-7.238V725.913z    M1333.127,749.783h7.238v7.239h-7.238V749.783z M1333.127,761.718h7.238v7.238h-7.238V761.718z M1333.127,773.652h7.238v7.239   h-7.238V773.652z M1333.127,785.587h7.238v7.239h-7.238V785.587z M1333.127,797.521h7.238v7.239h-7.238V797.521z M1333.127,809.456   h7.238v7.239h-7.238V809.456z M1333.127,821.392h7.238v7.239h-7.238V821.392z M1333.127,833.326h7.238v7.239h-7.238V833.326z    M1293.213,729.533h7.239v7.239h-7.239V729.533z M1293.213,751.661h7.239v7.239h-7.239V751.661z M1293.213,787.466h7.239v7.238   h-7.239V787.466z M1293.213,811.805h7.239v7.238h-7.239V811.805z M1293.213,823.739h7.239v7.239h-7.239V823.739z M1280.691,771.729   h7.239v7.239h-7.239V771.729z M1280.691,811.805h7.239v7.238h-7.239V811.805z M1268.17,729.533h7.239v7.239h-7.239V729.533z    M1268.17,741.467h7.239v7.239h-7.239V741.467z M1268.17,771.729h7.239v7.239h-7.239V771.729z M1268.17,799.4h7.239v7.239h-7.239   V799.4z M1221.409,801.766v13.104h-7.058l6.842-13.831L1221.409,801.766z M1219.768,799.711l-6.8,13.745l-5.634-13.745H1219.768z    M1211.529,814.87h-12.764l6.98-14.11L1211.529,814.87z M1204.183,799.711l-6.855,13.856l-6.463-13.856H1204.183z M1195.875,814.87   h-13.443l6.822-14.195L1195.875,814.87z M1187.646,799.711l-6.606,13.746l-5.828-13.746H1187.646z M1179.611,814.87h-11.975   l6.037-14.002L1179.611,814.87z M1172.139,799.711l-5.96,13.826l-7.108-13.826H1172.139z M1164.765,814.87h-13.103l5.826-14.152   L1164.765,814.87z M1150.236,813.431l-6.593-13.72h12.24L1150.236,813.431z M1129.671,799.711h10.888l-5.157,13.514   L1129.671,799.711z M1134.071,814.87h-12.087l6.143-14.019L1134.071,814.87z M1142.121,800.854l6.735,14.017h-12.085   L1142.121,800.854z M1154.148,794.597h-14.322l-4.11-5.417C1142.699,791.229,1149.284,793.166,1154.148,794.597z M1132.971,788.65   l4.512,5.946h-4.512V788.65z M1131.104,794.597h-3.477l3.477-6.248V794.597z M1129.518,787.36l-4.026,7.236h-0.296l-5.61-10.146   C1122.807,785.394,1126.162,786.377,1129.518,787.36z M1117.629,784.771l5.434,9.826h-5.434V784.771z M1126.437,799.711h0.151   l-5.941,13.562l-4.693-12.153C1122.062,800.125,1126.437,799.711,1126.437,799.711z M1092.426,806.945   c2.351-0.889,4.855-1.681,7.4-2.385l-3.912,9.006L1092.426,806.945z M1094.491,814.87h-7.019v-5.774   c1.015-0.511,2.087-0.998,3.206-1.461L1094.491,814.87z M1101.92,804.428l5.48,10.442h-10.017L1101.92,804.428z M1103.587,803.587   c3.215-0.778,6.4-1.423,9.328-1.948l-4.178,11.761L1103.587,803.587z M1114.54,802.641l4.722,12.229h-9.066L1114.54,802.641z    M1115.762,794.597h-4.753l4.753-9.757V794.597z M1100.544,778.907c3.301,0.949,8.297,2.403,14.043,4.082l-5.655,11.607h-0.254   l-9.681-16.151C1099.527,778.608,1100.044,778.764,1100.544,778.907z M1096.93,778.626l9.57,15.971h-9.57V778.626z    M1095.063,794.597h-5.886l5.886-15.571V794.597z M1070.682,768.639l-9.662,25.588l-12.711-31.382   C1056.082,764.285,1063.648,766.389,1070.682,768.639z M1072.171,769.979v24.617h-9.296L1072.171,769.979z M1046.763,764   l12.392,30.597h-12.392V764z M1028.904,760.923c5.17,0,10.367,0.47,15.5,1.259l-10.489,31.93l-13.741-33.028   C1023.067,760.978,1025.979,760.923,1028.904,760.923z M1044.896,766.669v27.928h-9.175L1044.896,766.669z M1019.096,763.351   l13,31.246h-13V763.351z M1016.182,761.264l-12.607,33.225l-15.298-29.997C997.295,762.854,1006.633,761.772,1016.182,761.264z    M1017.229,763.768v30.829h-11.699L1017.229,763.768z M988.072,768.202l13.461,26.395h-13.461V768.202z M986.206,764.875v29.722   h-11.355l11.346-29.72L986.206,764.875z M984.034,765.306l-11.18,29.285l-12.77-22.811   C967.719,769.156,975.729,766.992,984.034,765.306z M959.337,774.266l11.381,20.331h-11.381V774.266z M948.068,776.426   c2.332-1.01,4.712-1.971,7.131-2.885l-9.943,21.056h-0.068l-7.178-14.139C941.531,779.137,944.924,777.786,948.068,776.426z    M957.47,773.105v21.491H947.32L957.47,773.105z M946.12,806.528l-3.672,6.968l-3.783-9.501   C941.531,804.813,944.033,805.698,946.12,806.528z M936.933,782.46l6.16,12.137h-6.16V782.46z M940.986,814.87h-9.133l5.032-10.298   L940.986,814.87z M930.447,813.495l-5.285-12.165c3.758,0.421,7.22,1.07,10.337,1.828L930.447,813.495z M896.127,800.818   c4.08,0,7.837,0,11.131,0l-6.226,12.593L896.127,800.818z M899.597,814.87h-10.672l5.627-12.951L899.597,814.87z M908.991,801.524   l6.998,13.346h-13.596L908.991,801.524z M910.729,800.818c2.026,0,3.81,0,5.3,0c1.978,0,3.897,0.073,5.755,0.204l-4.453,12.386   L910.729,800.818z M923.417,801.999l5.593,12.871h-10.221L923.417,801.999z M935.065,794.597h-5.64l5.64-11.896V794.597z    M933.235,782.203l-5.876,12.394h-0.563l-6.433-8.045C924.642,785.177,928.992,783.717,933.235,782.203z M918.424,787.171   l0.037-0.011l5.945,7.437h-5.982V787.171z M916.558,794.597h-4.029l4.029-6.239V794.597z M914.259,788.475l-3.952,6.122h-0.937   l-3.135-3.703C908.801,790.139,911.493,789.329,914.259,788.475z M904.275,791.468l2.648,3.129h-13.719   C896.33,793.74,900.104,792.684,904.275,791.468z M892.994,800.818l-5.385,12.396l-4.555-12.396   C886.491,800.818,889.823,800.818,892.994,800.818z M881.065,800.818l5.163,14.052h-12.984l7.745-14.052H881.065z M878.857,800.818   l-6.979,12.662l-4.653-12.662C871.148,800.818,875.051,800.818,878.857,800.818z M870.4,814.87h-10.729l5.656-13.8L870.4,814.87z    M863.414,800.818l-5.155,12.578l-5.867-12.578C856.022,800.818,859.717,800.818,863.414,800.818z M856.886,814.87H844.8   l5.548-14.018L856.886,814.87z M848.354,800.818l-4.925,12.443l-5.276-12.443C841.432,800.818,844.85,800.818,848.354,800.818z    M842.083,814.87h-10.954l5.086-13.839L842.083,814.87z M834.304,800.818l-4.545,12.367l-5.243-12.367   C827.525,800.818,830.813,800.818,834.304,800.818z M819.58,801.856h-3.444l-0.577-1.038c1.403,0,2.939,0,4.601,0   C819.969,801.16,819.775,801.507,819.58,801.856z M822.294,800.818h0.193l5.958,14.052h-5.813v-13.014h-0.915   C821.923,801.486,822.12,801.132,822.294,800.818z M950.976,859.985H822.632v-0.171v-43.239h128.344V859.985z M950.976,814.87   h-7.141l4.019-7.627c1.242,0.532,2.288,1.023,3.122,1.437V814.87z M1082.479,859.985H955.968v-52.014   c19.676-11.469,95.584-5.704,95.584-5.704c12.313,0,25.017,4.119,30.928,6.32V859.985z M1074.037,794.597V771.92l11.19,22.677   H1074.037z M1075.241,770.141c4.281,1.445,8.324,2.904,12.04,4.246c2.365,0.854,4.581,1.654,6.642,2.372l-6.687,17.69   L1075.241,770.141z M1087.473,816.575c0,0,47.842,0.081,47.975,0.081c0.004,0,62.85-0.054,85.962-0.074v43.232v0.171h-133.937   V816.575z"/>
</g>
<g>
</g>
<g>
</g>
<g>
</g>
<g>
</g>
<g>
</g>
<g>
</g>
</svg>